# xmcd CD database file
#
# Track frame offsets:
#	150
#	22667
#	41970
#	64447
#
# Disc length: 1111 seconds
#
# Revision: 0
# Processed by: cddbd v1.5.1PL0 Copyright (c) Steve Scherf et al.
# Submitted via: CDex 1.51
#
DISCID=30045504
DTITLE=倖田來未 - Chase
DYEAR=2004
DGENRE=JPop
TTITLE0=Chase
TTITLE1=Heat feat. MEGARYU
TTITLE2=Chase (instrumental)
TTITLE3=Heat feat. MEGARYU (instrumental)
EXTD=YEAR: 2004
EXTT0=
EXTT1=
EXTT2=
EXTT3=
PLAYORDER=
